<svg width="512" height="512" viewBox="0 0 512 512" xmlns="http://www.w3.org/2000/svg">
  <defs>
    <linearGradient id="bg" x1="0" y1="0" x2="1" y2="1">
      <stop offset="0" stop-color="#26262e"/>
      <stop offset="1" stop-color="#0d0d11"/>
    </linearGradient>
    <linearGradient id="red" x1="0" y1="0" x2="0" y2="1">
      <stop offset="0" stop-color="#ff4d57"/>
      <stop offset="1" stop-color="#c81f2c"/>
    </linearGradient>
  </defs>

  <rect width="512" height="512" fill="url(#bg)"/>

  <!-- ตัวปฏิทิน -->
  <rect x="112" y="140" width="288" height="248" rx="36" fill="#17171b" stroke="rgba(255,255,255,0.12)" stroke-width="3"/>
  <!-- แถบหัวสีแดง -->
  <path d="M112 176 a36 36 0 0 1 36 -36 h216 a36 36 0 0 1 36 36 v26 h-288 z" fill="url(#red)"/>
  <!-- ห่วง -->
  <rect x="170" y="112" width="18" height="52" rx="9" fill="#eaeaef"/>
  <rect x="324" y="112" width="18" height="52" rx="9" fill="#eaeaef"/>

  <!-- ช่องวันที่ -->
  <g fill="#5a5a64">
    <rect x="150" y="232" width="36" height="30" rx="8"/>
    <rect x="206" y="232" width="36" height="30" rx="8"/>
    <rect x="262" y="232" width="36" height="30" rx="8"/>
    <rect x="318" y="232" width="36" height="30" rx="8"/>
    <rect x="150" y="284" width="36" height="30" rx="8"/>
    <rect x="262" y="284" width="36" height="30" rx="8"/>
    <rect x="318" y="284" width="36" height="30" rx="8"/>
    <rect x="150" y="336" width="36" height="30" rx="8"/>
    <rect x="206" y="336" width="36" height="30" rx="8"/>
    <rect x="262" y="336" width="36" height="30" rx="8"/>
  </g>
  <!-- วันนี้ (แดง) -->
  <rect x="206" y="284" width="36" height="30" rx="8" fill="url(#red)"/>
</svg>
